SplineFontDB: 3.0
FontName: was
FullName: was
FamilyName: was
Weight: Medium
Copyright: Created by digit with FontForge 2.0 (http://fontforge.sf.net)
UComments: "2015-3-10: Created." 
Version: 001.000
ItalicAngle: 0
UnderlinePosition: -102
UnderlineWidth: 51
Ascent: 896
Descent: 128
LayerCount: 2
Layer: 0 0 "Back"  1
Layer: 1 0 "Fore"  0
NeedsXUIDChange: 1
XUID: [1021 255 1586799369 5853673]
FSType: 0
OS2Version: 0
OS2_WeightWidthSlopeOnly: 0
OS2_UseTypoMetrics: 1
CreationTime: 1426005440
ModificationTime: 1426014924
PfmFamily: 17
TTFWeight: 500
TTFWidth: 5
LineGap: 92
VLineGap: 92
OS2TypoAscent: 0
OS2TypoAOffset: 1
OS2TypoDescent: 0
OS2TypoDOffset: 1
OS2TypoLinegap: 92
OS2WinAscent: 0
OS2WinAOffset: 1
OS2WinDescent: 0
OS2WinDOffset: 1
HheadAscent: 0
HheadAOffset: 1
HheadDescent: 0
HheadDOffset: 1
OS2Vendor: 'PfEd'
MarkAttachClasses: 1
DEI: 91125
LangName: 1033 
Encoding: ISO8859-1
UnicodeInterp: none
NameList: Adobe Glyph List
DisplaySize: -24
AntiAlias: 1
FitToEm: 1
WinInfo: 0 13 17
BeginPrivate: 0
EndPrivate
BeginChars: 256 96

StartChar: exclam
Encoding: 33 33 1
Width: 768
VWidth: 0
Flags: W
HStem: 0 131<256 384>
VStem: 256 128<0 131 264 655>
LayerCount: 2
Fore
SplineSet
256 264 m 25
 256 655 l 25
 384 655 l 25
 384 264 l 25
 256 264 l 25
256 0 m 25
 256 131 l 25
 384 131 l 25
 384 0 l 25
 256 0 l 25
EndSplineSet
Validated: 1
EndChar

StartChar: quotedbl
Encoding: 34 34 2
Width: 768
VWidth: 0
Flags: W
HStem: 386 242<128 251.05 516.95 640>
VStem: 128 123.05<386 627.95> 516.95 123.05<386 627.95>
LayerCount: 2
Fore
SplineSet
516.95 386 m 25
 516.95 628 l 25
 640 627.95 l 25
 640 385.95 l 25
 516.95 386 l 25
128 386 m 25
 128 628 l 25
 251.05 627.95 l 25
 251.05 385.95 l 25
 128 386 l 25
EndSplineSet
Validated: 524289
EndChar

StartChar: numbersign
Encoding: 35 35 3
Width: 768
VWidth: 0
Flags: W
HStem: 0 21G<128 256 384 512> 128 128<0 128 256 384 512 640> 386 126<0 128 256 384 512 640> 620 20G<128 256 384 512>
VStem: 128 128<0 128 256 384 512 640> 384 128<0 128 256 384 512 640>
LayerCount: 2
Fore
SplineSet
256 256 m 25
 384 256 l 25
 384 384 l 25
 256 384 l 25
 256 256 l 25
128 0 m 25
 128 128 l 25
 0 128 l 25
 0 256 l 25
 128 256 l 25
 128 386 l 25
 0 386 l 25
 0 512 l 25
 128 512 l 25
 128 640 l 25
 256 640 l 25
 256 512 l 25
 384 512 l 25
 384 640 l 25
 512 640 l 25
 512 512 l 25
 640 512 l 25
 640 386 l 25
 512 386 l 25
 512 256 l 25
 640 256 l 25
 640 128 l 25
 512 128 l 25
 512 0 l 25
 384 0 l 25
 384 128 l 25
 256 128 l 25
 256 0 l 25
 128 0 l 25
EndSplineSet
Validated: 1
EndChar

StartChar: dollar
Encoding: 36 36 4
Width: 768
VWidth: 0
Flags: W
HStem: -128 21G<256 384> 0 128<0 256 386 512> 256 128<128 256 386 512> 512 128<128 256 384 640>
VStem: 0 128<384 512> 256 128<-128 0 128 256 384 512 640 768> 512 128<128 256>
CounterMasks: 1 0e
LayerCount: 2
Fore
SplineSet
128 384 m 25
 256 384 l 25
 256 512 l 25
 128 512 l 25
 128 384 l 25
386 128 m 25
 512 128 l 25
 512 256 l 25
 386 256 l 25
 386 128 l 25
0 0 m 25
 0 128 l 25
 256 128 l 25
 256 256 l 25
 128 256 l 26
 59.5732 256 0 300 0 376 c 8
 0 429.04 0 458 0 512 c 0
 0 581.503 34 640 128 640 c 8
 177.92 640 206.08 640 256 640 c 25
 256 768 l 25
 384 768 l 25
 384 640 l 25
 640 640 l 25
 640 512 l 25
 384 512 l 25
 384 384 l 25
 510 384 l 26
 581.151 384 640 318 640 256 c 8
 640 206.08 640 128 640 128 c 2
 640 28 584 0 512 0 c 8
 462.08 0 433.92 0 384 0 c 25
 384 -128 l 25
 256 -128 l 25
 256 0 l 25
 0 0 l 25
EndSplineSet
Validated: 524289
EndChar

StartChar: percent
Encoding: 37 37 5
Width: 768
VWidth: 0
Flags: W
HStem: 0 255.5<0 128 384.2 640> 384 256<0 256>
VStem: 0 256<384 640> 0 128<0 256> 384 256<0 255.5> 513.2 120.85<388.6 630.55>
LayerCount: 2
Fore
SplineSet
0 0 m 25xd0
 0 256 l 25
 128 256 l 25
 128 0 l 25
 0 0 l 25xd0
513.2 388.6 m 25xc4
 513.2 630.6 l 25
 634.05 630.55 l 25
 634.05 388.55 l 25
 513.2 388.6 l 25xc4
384 0 m 25xc8
 384.2 255.5 l 25
 640 255.5 l 25
 640 -0.5 l 25
 384 0 l 25xc8
0 384 m 25xe0
 0 640 l 25
 256 640 l 25
 256 384 l 25
 0 384 l 25xe0
EndSplineSet
Validated: 524289
EndChar

StartChar: ampersand
Encoding: 38 38 6
Width: 768
VWidth: 0
Flags: W
HStem: 0 128<128 512> 256 128<384 512> 512 128<0 128 256 512>
VStem: 0 128<128 256> 128 128<384 512> 512 128<128 256>
CounterMasks: 1 e0
LayerCount: 2
Fore
SplineSet
0 384 m 25xf4
 128 384 l 25
 128 512 l 25xec
 0 512 l 25
 0 640 l 25xf4
 512 640 l 25
 512 512 l 25
 256 512 l 25
 256 256 l 25xec
 128 256 l 25
 128 128 l 25
 512 128 l 25
 512 256 l 25
 384 256 l 25
 384 384 l 25
 640 384 l 25
 640 0 l 25
 0 0 l 25
 0 384 l 25xf4
EndSplineSet
Validated: 1
EndChar

StartChar: quotesingle
Encoding: 39 39 7
Width: 768
VWidth: 0
Flags: W
HStem: 386 242
VStem: 256 128<386 627.95>
LayerCount: 2
Fore
SplineSet
256 386 m 25
 256 628 l 25
 384 627.95 l 25
 384 385.95 l 25
 256 386 l 25
EndSplineSet
Validated: 524289
EndChar

StartChar: parenleft
Encoding: 40 40 8
Width: 768
VWidth: 0
Flags: W
HStem: -128 128<192.771 512> 640 128<200.565 512>
VStem: 0 128<93.6611 547.096>
LayerCount: 2
Fore
SplineSet
512 -128 m 29
 256 -128 l 30
 114.805 -128 0 -128 0 128 c 12
 0 512 l 14
 0 653.195 0 768 256 768 c 12
 355.84 768 412.16 768 512 768 c 29
 512 640 l 29
 256 640 l 22
 128 640 128 453.138 128 318 c 28
 128 184.311 128 0 256 0 c 12
 355.84 0 412.16 0 512 0 c 29
 512 -128 l 29
EndSplineSet
Validated: 524289
EndChar

StartChar: parenright
Encoding: 41 41 9
Width: 768
VWidth: 0
Flags: W
HStem: -128 128<0 319.229> 640 128<0 311.435>
VStem: 384 128<93.6611 547.097>
LayerCount: 2
Fore
SplineSet
0 -128 m 17
 0 -83.6 0 -39.6 0 0 c 9
 99.8398 0 156.16 0 256 0 c 16
 384 0 384 184.311 384 318 c 24
 384 453.139 384 640 256 640 c 10
 0 640 l 25
 0 768 l 25
 99.8398 768 156.16 768 256 768 c 16
 512 768 512 653.195 512 512 c 18
 512 512 512 277.76 512 128 c 16
 512 -128 397.195 -128 256 -128 c 26
 0 -128 l 17
EndSplineSet
Validated: 524289
EndChar

StartChar: asterisk
Encoding: 42 42 10
Width: 768
VWidth: 0
Flags: W
HStem: 256.05 114<128 256 384 512> 512 128<128 256 384 512>
VStem: 128 128<256.05 370> 256 128<370 512 640 767.95> 384 128<256 369.95>
LayerCount: 2
Fore
SplineSet
384 256 m 25xc8
 384 370 l 29xd0
 512 369.95 l 25
 512 255.95 l 25
 384 256 l 25xc8
128 256.05 m 25xe0
 128 370.05 l 25
 256 370 l 29xe0
 256 256 l 25xd0
 128 256.05 l 25xe0
512 512 m 21xc8
 384 512 l 4
 384 370 l 0xd0
 256 370 l 0xe0
 256 512 l 4xd0
 128 512 l 4
 128 640 l 4xe0
 256 640 l 4
 256 768 l 13
 384 767.95 l 21
 384 640 l 4xd0
 512 640 l 13
 512 512 l 21xc8
EndSplineSet
Validated: 524293
EndChar

StartChar: plus
Encoding: 43 43 11
Width: 768
VWidth: 0
Flags: W
HStem: -0.799805 21G<256 384> 254.5 128<0 256 384 640>
VStem: 256 128<-0.799805 254.2 382.5 638.2>
LayerCount: 2
Fore
SplineSet
256 254.5 m 17
 0 254.5 l 0
 0 382.5 l 0
 256 382.5 l 0
 256 638.25 l 9
 384 638.2 l 17
 384 382.5 l 0
 640 382.5 l 9
 640 254.5 l 25
 384 254.2 l 25
 384 -0.799805 l 25
 256 -0.799805 l 25
 256 254.5 l 17
EndSplineSet
Validated: 524289
EndChar

StartChar: comma
Encoding: 44 44 12
Width: 768
VWidth: 0
Flags: W
HStem: -127.95 255.95
VStem: 255.95 128.05<-127.95 127.95>
LayerCount: 2
Fore
SplineSet
255.95 -127.95 m 25
 255.95 128 l 25
 384 127.95 l 25
 384 -128 l 25
 255.95 -127.95 l 25
EndSplineSet
Validated: 524289
EndChar

StartChar: hyphen
Encoding: 45 45 13
Width: 768
VWidth: 0
Flags: W
HStem: 256.55 127.95<0 635.2>
LayerCount: 2
Fore
SplineSet
0 256.55 m 29
 0 384.5 l 29
 635.2 384.45 l 29
 635.2 256.5 l 29
 0 256.55 l 29
EndSplineSet
Validated: 524289
EndChar

StartChar: period
Encoding: 46 46 14
Width: 768
VWidth: 0
Flags: W
HStem: 0.0498047 127.95<255.95 384>
VStem: 255.95 128.05<0.0498047 127.95>
LayerCount: 2
Fore
SplineSet
255.95 0.0498047 m 25
 255.95 128 l 25
 384 127.95 l 25
 384 0 l 25
 255.95 0.0498047 l 25
EndSplineSet
Validated: 524289
EndChar

StartChar: slash
Encoding: 47 47 15
Width: 768
VWidth: 0
Flags: W
HStem: -128 21G<0 133.886>
LayerCount: 2
Fore
SplineSet
0 -127.95 m 29
 513.2 819.3 l 29
 636.25 819.25 l 29
 123.05 -128 l 29
 0 -127.95 l 29
EndSplineSet
Validated: 524289
EndChar

StartChar: zero
Encoding: 48 48 16
Width: 768
VWidth: 0
Flags: W
HStem: 0 128<128 640> 256.1 127.95<255.95 379> 512 128<127.95 512>
VStem: 0 128<128 512> 255.95 123.05<256.1 384> 512 128<128 512>
LayerCount: 2
Fore
SplineSet
255.95 256.1 m 25
 255.95 384.05 l 25
 379 384 l 25
 379 256.05 l 25
 255.95 256.1 l 25
127.95 512 m 1
 128 128 l 1
 640 128 l 1
 640 0 l 1
 0 0 l 1
 0 640 l 1
 640 640 l 1
 640 128 l 1
 512 128 l 1
 512 512 l 1
 127.95 512 l 1
EndSplineSet
Validated: 524293
EndChar

StartChar: one
Encoding: 49 49 17
Width: 768
VWidth: 0
Flags: W
HStem: 0 128<0 255.95 384 640> 512 128.05<128 255.95>
VStem: 255.95 128.05<128 512>
LayerCount: 2
Fore
SplineSet
0 0 m 21
 0 128 l 5
 255.95 128 l 5
 255.95 512 l 5
 128 512 l 5
 128 640.05 l 13
 384 640 l 21
 384 128 l 5
 640 128 l 5
 640 0 l 13
 0 0 l 21
EndSplineSet
Validated: 524289
EndChar

StartChar: two
Encoding: 50 50 18
Width: 768
VWidth: 0
Flags: W
HStem: 0 128<128 640> 255.95 128.05<127.95 384> 512 128<128 384>
VStem: 0 128<128 255.95> 384 127.95<384 512>
LayerCount: 2
Fore
SplineSet
511.95 255.95 m 25
 127.95 255.95 l 17
 128 128 l 1
 640 128 l 1
 640 0 l 1
 0 0 l 1
 0 384 l 1
 384 384 l 1
 384 512 l 1
 128 512 l 1
 128 640 l 1
 512 640 l 9
 511.95 255.95 l 25
EndSplineSet
Validated: 524289
EndChar

StartChar: three
Encoding: 51 51 19
Width: 768
VWidth: 0
Flags: W
HStem: 0 128<0 384> 255.95 123.05<0.0498047 384> 512 128<0 384>
VStem: 384 128<128 255.95 379 512>
LayerCount: 2
Fore
SplineSet
0.0498047 255.95 m 29
 0 379 l 29
 384 379 l 21
 384 512 l 5
 0 512 l 5
 0 640 l 5
 512 640 l 5
 512 0 l 5
 0 0 l 5
 0 128 l 5
 384 128 l 5
 384.05 255.95 l 13
 0.0498047 255.95 l 29
EndSplineSet
Validated: 524289
EndChar

StartChar: four
Encoding: 52 52 20
Width: 768
VWidth: 0
Flags: W
HStem: 0 21G<384 512> 128 128<128 384 512.05 640> 492 20G<0 128> 620 20G<384 512.05>
VStem: 0 128<256 512> 384 128.05<0 128 256 639.95>
LayerCount: 2
Fore
SplineSet
640 128 m 17
 512 128 l 1
 512 0 l 1
 384 0 l 1
 384 128 l 1
 0 128 l 1
 0 512 l 1
 128 512 l 1
 128 256 l 1
 384 256 l 9
 384 640 l 25
 512.05 639.95 l 25
 512.05 255.95 l 17
 640 256 l 9
 640 128 l 17
EndSplineSet
Validated: 524289
EndChar

StartChar: five
Encoding: 53 53 21
Width: 768
VWidth: 0
Flags: W
HStem: 0 128<0 384> 255.95 128.05<128 384.05> 512 128<128 640>
VStem: 0.0498047 127.95<384 512> 384 128<128 255.95>
LayerCount: 2
Fore
SplineSet
0.0498047 255.95 m 25
 0 640 l 17
 640 640 l 1
 640 512 l 1
 128 512 l 1
 128 384 l 1
 512 384 l 1
 512 0 l 1
 0 0 l 1
 0 128 l 1
 384 128 l 1
 384.05 255.95 l 9
 0.0498047 255.95 l 25
EndSplineSet
Validated: 524289
EndChar

StartChar: six
Encoding: 54 54 22
Width: 768
VWidth: 0
Flags: W
HStem: 0 128<128 512> 256 127.983<128 512> 512 127.934<128 379>
VStem: 0 128<128 512> 512 128<128 256>
LayerCount: 2
Fore
SplineSet
0 639.934 m 29
 379 639.983 l 29
 379 512.033 l 21
 128 512 l 5
 128 128 l 5
 512 128 l 5
 512 256 l 5
 128 256 l 5
 128 383.983 l 5
 640 383.983 l 5
 640 0 l 5
 0 0 l 13
 0 639.934 l 29
EndSplineSet
Validated: 524293
EndChar

StartChar: seven
Encoding: 55 55 23
Width: 768
VWidth: 0
Flags: W
HStem: 0 21G<384 512> 512 128<0 384 512 640>
VStem: 384 128<0 512>
LayerCount: 2
Fore
SplineSet
640 640 m 17
 640 512 l 1
 512 512 l 5
 512 0 l 5
 384 0 l 5
 384 512 l 5
 0 512 l 1
 0 640 l 9
 640 640 l 17
EndSplineSet
Validated: 1
EndChar

StartChar: eight
Encoding: 56 56 24
Width: 768
VWidth: 0
Flags: W
HStem: 0 128<128 512> 256 127.983<128 512> 512 127.934<128 512>
VStem: 0 128<128 512> 512 128<128 256 384 512>
LayerCount: 2
Fore
SplineSet
0 639.934 m 25
 640 639.983 l 25
 640 383.983 l 17
 512 384 l 1
 512 512 l 1
 128 512 l 1
 128 128 l 1
 512 128 l 1
 512 256 l 1
 128 256 l 1
 128 383.983 l 1
 640 383.983 l 1
 640 0 l 1
 0 0 l 9
 0 639.934 l 25
EndSplineSet
Validated: 524293
EndChar

StartChar: nine
Encoding: 57 57 25
Width: 768
VWidth: 0
Flags: W
HStem: 0 127.95<384 512> 256 127.983<128 512> 511.983 128<128 512>
VStem: 0 128<383.983 511.983> 512 128<127.983 256 383.983 511.983>
LayerCount: 2
Fore
SplineSet
640 0.0498047 m 25
 384 0 l 25
 384 127.95 l 17
 512 127.983 l 1
 512 511.983 l 1
 128 511.983 l 1
 128 383.983 l 1
 512 383.983 l 1
 512 256 l 1
 0 256 l 1
 0 639.983 l 1
 640 639.983 l 9
 640 0.0498047 l 25
EndSplineSet
Validated: 524293
EndChar

StartChar: colon
Encoding: 58 58 26
Width: 768
VWidth: 0
Flags: W
HStem: 0.0498047 127.95<255.95 379> 512.05 127.95<255.95 379>
VStem: 255.95 123.05<0.0498047 127.95 512.05 639.95>
LayerCount: 2
Fore
SplineSet
255.95 0.0498047 m 29
 255.95 128 l 29
 379 127.95 l 29
 379 0 l 29
 255.95 0.0498047 l 29
255.95 512.05 m 25
 255.95 640 l 25
 379 639.95 l 25
 379 512 l 25
 255.95 512.05 l 25
EndSplineSet
Validated: 524289
EndChar

StartChar: semicolon
Encoding: 59 59 27
Width: 768
VWidth: 0
Flags: W
HStem: -128 21G<255.95 379> 512.05 127.95<255.95 379>
VStem: 255.95 123.05<-127.95 127.95 512.05 639.95>
LayerCount: 2
Fore
SplineSet
255.95 512.05 m 29
 255.95 640 l 29
 379 639.95 l 29
 379 512 l 29
 255.95 512.05 l 29
255.95 -127.95 m 25
 255.95 128 l 25
 379 127.95 l 25
 379 -128 l 25
 255.95 -127.95 l 25
EndSplineSet
Validated: 524289
EndChar

StartChar: less
Encoding: 60 60 28
Width: 768
VWidth: 0
Flags: W
HStem: -128.3 21G<734.667 768>
LayerCount: 2
Fore
SplineSet
768 639.7 m 25
 768 511.7 l 25
 512 255.7 l 25
 768 -0.299805 l 25
 768 -128.3 l 25
 128 255.7 l 25
 768 639.7 l 25
EndSplineSet
Validated: 524289
EndChar

StartChar: equal
Encoding: 61 61 29
Width: 768
VWidth: 0
Flags: W
HStem: 127.75 127.95<0 635.2> 385.8 127.95<0 635.2>
LayerCount: 2
Fore
SplineSet
0 385.8 m 25
 0 513.75 l 25
 635.2 513.7 l 25
 635.2 385.75 l 25
 0 385.8 l 25
0 127.75 m 25
 0 255.7 l 25
 635.2 255.65 l 25
 635.2 127.7 l 25
 0 127.75 l 25
EndSplineSet
Validated: 524289
EndChar

StartChar: greater
Encoding: 62 62 30
Width: 768
VWidth: 0
Flags: W
HStem: 619.7 20G<0 33.3333>
LayerCount: 2
Fore
SplineSet
0 -128.3 m 29
 0 -0.299805 l 29
 256 255.7 l 29
 0 511.7 l 29
 0 639.7 l 29
 640 255.7 l 29
 0 -128.3 l 29
EndSplineSet
Validated: 524289
EndChar

StartChar: question
Encoding: 63 63 31
Width: 768
VWidth: 0
Flags: W
HStem: 0.0498047 127.95<255.95 379> 257.75 127.95<255.95 511.2> 513.7 128<0 511.2>
VStem: 255.95 123.05<0.0498047 127.95> 511.2 128<385.7 513.7>
LayerCount: 2
Fore
SplineSet
255.95 257.75 m 17
 255.2 385.7 l 1
 511.2 385.7 l 1
 511.2 513.7 l 1
 0 513.7 l 1
 0 641.7 l 1
 639.2 641.7 l 1
 639.2 385.7 l 1
 639.2 257.7 l 9
 255.95 257.75 l 17
255.95 0.0498047 m 25
 255.95 128 l 25
 379 127.95 l 25
 379 0 l 25
 255.95 0.0498047 l 25
EndSplineSet
Validated: 524289
EndChar

StartChar: at
Encoding: 64 64 32
Width: 768
VWidth: 0
Flags: W
HStem: -128.3 128.3<127.2 639.2> 127.7 130<385.2 513.2> 513.7 126<127.2 513.2>
VStem: 0 127.2<0 513.7> 257.2 128<257.7 385.7> 513.2 126<257.7 513.7>
LayerCount: 2
Fore
SplineSet
639.2 0 m 29
 639.2 -128.3 l 29
 0 -128.3 l 29
 0 639.7 l 29
 639.2 639.7 l 29
 639.2 127.7 l 29
 257.2 127.7 l 29
 257.2 385.7 l 29
 385.2 385.7 l 29
 385.2 257.7 l 29
 513.2 257.7 l 29
 513.2 513.7 l 29
 127.2 513.7 l 29
 127.2 0 l 29
 639.2 0 l 29
EndSplineSet
Validated: 524289
EndChar

StartChar: A
Encoding: 65 65 33
Width: 768
VWidth: 0
Flags: W
HStem: 0 21G<0 128 512 640> 128 128<128 512> 512 128<128 512>
VStem: 0 128<0 128 256 512> 512 128<0 128 256 512.05>
LayerCount: 2
Fore
SplineSet
512 0 m 21
 512 512.05 l 5
 128 512 l 5
 128 256 l 5
 512 256 l 5
 512 128 l 5
 128 128 l 5
 128 0 l 5
 0 0 l 5
 0 640 l 5
 640 640 l 5
 640 0 l 13
 512 0 l 21
EndSplineSet
Validated: 524293
EndChar

StartChar: B
Encoding: 66 66 34
Width: 768
VWidth: 0
Flags: W
HStem: 0 128<128 511.95> 256 128<128 383.95> 512 128<128 383.95>
VStem: 0 128<128 256 384 512> 383.95 128<384 512> 511.95 128<128 256>
CounterMasks: 1 e0
LayerCount: 2
Fore
SplineSet
639.9 256 m 29xf4
 127.95 256 l 17
 128 128 l 1
 511.95 128 l 5
 511.95 256 l 5
 639.9 256 l 5
 639.95 128 l 5
 639.95 0 l 5
 0 0 l 1
 0 640 l 1
 511.95 640 l 5xf4
 511.95 384 l 5
 383.95 384 l 5
 383.95 512 l 5xf8
 128 512 l 1
 128 384 l 9
 639.95 384 l 29
 639.9 256 l 29xf4
EndSplineSet
Validated: 524293
EndChar

StartChar: C
Encoding: 67 67 35
Width: 768
VWidth: 0
Flags: W
HStem: 0 128<128 640> 512 128<127.95 640>
VStem: 0 128<128 512>
LayerCount: 2
Fore
SplineSet
127.95 512 m 5
 128 128 l 5
 640 128 l 5
 640 0 l 5
 0 0 l 5
 0 640 l 5
 640 640 l 5
 640 512 l 5
 127.95 512 l 5
EndSplineSet
Validated: 524289
EndChar

StartChar: D
Encoding: 68 68 36
Width: 768
VWidth: 0
Flags: W
HStem: 0 128<256 512> 512 128<128 512>
VStem: 0 128<0 512> 512 128<128 512.05>
LayerCount: 2
Fore
SplineSet
512 512.05 m 1
 128 512 l 1
 128 0 l 1
 0 0 l 1
 0 640 l 1
 640 640 l 1
 640 0 l 1
 256 0 l 1
 256 128 l 1
 512 128 l 1
 512 512.05 l 1
EndSplineSet
Validated: 524289
EndChar

StartChar: E
Encoding: 69 69 37
Width: 768
VWidth: 0
Flags: W
HStem: 0 128<128 640.05> 255.95 123.05<128 511.95> 512 128<128 640.05>
VStem: 0 128<128 255.95 379 512>
LayerCount: 2
Fore
SplineSet
511.95 255.95 m 29
 127.95 255.95 l 21
 128 128 l 5
 640.05 128 l 5
 640.05 0 l 5
 0 0 l 5
 0 640 l 5
 640.05 640 l 5
 640.05 512 l 5
 128 512 l 5
 128 379 l 13
 512 379 l 29
 511.95 255.95 l 29
EndSplineSet
Validated: 524289
EndChar

StartChar: F
Encoding: 70 70 38
Width: 768
VWidth: 0
Flags: W
HStem: 0 21G<0 128> 255.95 123.05<128 511.95> 512 128<128 640>
VStem: 0 128<0 255.95 379 512>
LayerCount: 2
Fore
SplineSet
0 0 m 21
 0 640 l 5
 640 640 l 5
 640 512 l 5
 128 512 l 5
 128 379 l 13
 512 379 l 29
 511.95 255.95 l 29
 127.95 255.95 l 21
 128 0 l 13
 0 0 l 21
EndSplineSet
Validated: 524289
EndChar

StartChar: G
Encoding: 71 71 39
Width: 768
VWidth: 0
Flags: W
HStem: 0 128<128 512> 256 127.983<384 512> 512 127.934<128 507>
VStem: 0 128<128 512> 512 128<128 256>
LayerCount: 2
Fore
SplineSet
0 639.934 m 25
 507 639.983 l 25
 507 512.033 l 17
 128 512 l 5
 128 128 l 5
 512 128 l 1
 512 256 l 1
 384 256 l 1
 384 383.983 l 1
 640 383.983 l 1
 640 0 l 1
 0 0 l 9
 0 639.934 l 25
EndSplineSet
Validated: 524289
EndChar

StartChar: H
Encoding: 72 72 40
Width: 768
VWidth: 0
Flags: W
HStem: 0 21G<0 128 511.996 640> 255.95 123.05<128 511.95> 620 20G<0 128 512 640>
VStem: 0 128<0 255.95 379 640> 512 128<0 255.95 379 640>
LayerCount: 2
Fore
SplineSet
0 640 m 13
 128 640 l 21
 128 379 l 13
 512 379 l 21
 512 640 l 5
 640 640 l 5
 640 0 l 5
 512 0 l 5
 511.95 255.95 l 13
 127.95 255.95 l 21
 128 0 l 13
 0 0 l 21
 0 640 l 13
EndSplineSet
Validated: 524289
EndChar

StartChar: I
Encoding: 73 73 41
Width: 768
VWidth: 0
Flags: W
HStem: 0 128<0 255.95 379 640> 512 128<0 255.95 379 640>
VStem: 255.95 123.05<128.05 512>
LayerCount: 2
Fore
SplineSet
640 640 m 13
 640 512 l 21
 379 512 l 13
 379 128 l 21
 640 128 l 5
 640 0 l 5
 0 0 l 5
 0 128 l 5
 255.95 128.05 l 13
 255.95 512.05 l 21
 0 512 l 13
 0 640 l 21
 640 640 l 13
EndSplineSet
Validated: 524289
EndChar

StartChar: J
Encoding: 74 74 42
Width: 768
VWidth: 0
Flags: W
HStem: 0 128<0 384> 512 128<0 384 507.05 640>
VStem: 384 123.05<128.05 512>
LayerCount: 2
Fore
SplineSet
0 0 m 21
 0 128 l 1
 384 128.05 l 9
 384 512.05 l 17
 0 512 l 9
 0 640 l 17
 640 640 l 9
 640 512 l 17
 507.05 512 l 9
 507.05 0 l 25
 0 0 l 21
EndSplineSet
Validated: 524289
EndChar

StartChar: K
Encoding: 75 75 43
Width: 768
VWidth: 0
Flags: W
HStem: 0 128<384 640> 255.95 123.05<128 255.95> 512 128<384 640>
VStem: 0 128<0 255.95 379 640> 256 128<128 255.95 379 512>
LayerCount: 2
Fore
SplineSet
0 640 m 13
 128 640 l 21
 128 379 l 13
 256 379 l 21
 256 640 l 5
 640 640 l 5
 640 512 l 5
 384 512 l 5
 384 128 l 5
 640 128 l 5
 640 0 l 5
 256 0 l 5
 255.95 255.95 l 13
 127.95 255.95 l 21
 128 0 l 13
 0 0 l 21
 0 640 l 13
EndSplineSet
Validated: 524289
EndChar

StartChar: L
Encoding: 76 76 44
Width: 768
VWidth: 0
Flags: W
HStem: 0 128<128 640> 620 20G<0 127.952>
VStem: 0 128<128 640>
LayerCount: 2
Fore
SplineSet
0 640 m 9
 127.95 640 l 17
 128 128 l 1
 640 128 l 1
 640 0 l 1
 0 0 l 1
 0 640 l 9
EndSplineSet
Validated: 524289
EndChar

StartChar: M
Encoding: 77 77 45
Width: 768
VWidth: 0
Flags: HW
HStem: 0 21G<0 128 256 386 512 640> 524 131<128 256 386 512>
VStem: 0 128<0 524> 256 130<0 524> 512 128<0 524>
LayerCount: 2
Fore
SplineSet
256 0 m 25
 256 512 l 17
 128 512 l 1
 128 0 l 1
 0 0 l 1
 0 640 l 1
 640 640 l 1
 640 0 l 1
 512 0 l 1
 512 512 l 1
 386 512 l 9
 386 0 l 25
 256 0 l 25
EndSplineSet
EndChar

StartChar: N
Encoding: 78 78 46
Width: 768
VWidth: 0
Flags: W
HStem: 0.0498047 127.95<384 512> 512 128<128 255.95>
VStem: 0 128<0 512> 255.95 128.05<128 512.05> 512 128<128 640>
LayerCount: 2
Fore
SplineSet
255.95 0.0498047 m 25
 255.95 512.05 l 17
 128 512 l 1
 128 0 l 1
 0 0 l 1
 0 640 l 1
 384 640 l 1
 384 128 l 1
 512 128 l 1
 512 640 l 1
 640 640 l 1
 640 0 l 9
 255.95 0.0498047 l 25
EndSplineSet
Validated: 524289
EndChar

StartChar: O
Encoding: 79 79 47
Width: 768
VWidth: 0
Flags: W
HStem: 0 128<128 640> 512 128<127.95 512>
VStem: 0 128<128 512> 512 128<128 512>
LayerCount: 2
Fore
SplineSet
127.95 512 m 5
 128 128 l 5
 640 128 l 5
 640 0 l 5
 0 0 l 5
 0 640 l 5
 640 640 l 5
 640 128 l 5
 512 128 l 5
 512 512 l 5
 127.95 512 l 5
EndSplineSet
Validated: 524293
EndChar

StartChar: P
Encoding: 80 80 48
Width: 768
VWidth: 0
Flags: W
HStem: -0.0664062 21G<0 128> 127.934 127.983<128 512> 511.934 128<128 512>
VStem: 0 128<0 127.934 255.917 511.934> 512 128<255.917 511.934>
LayerCount: 2
Fore
SplineSet
128 -0.0664062 m 13
 0 0 l 29
 0 639.934 l 21
 640 639.934 l 5
 640 127.934 l 5
 128 127.934 l 5
 128 255.917 l 5
 512 255.917 l 5
 512 511.934 l 5
 128 511.934 l 5
 128 -0.0664062 l 13
EndSplineSet
Validated: 524293
EndChar

StartChar: Q
Encoding: 81 81 49
Width: 768
VWidth: 0
Flags: W
HStem: -128 21G<256 384> 0 128<128 256 384 640> 512 128<127.95 512>
VStem: 0 128<128 512> 256 128<-128 0 128 256> 512 128<128 512>
CounterMasks: 1 1c
LayerCount: 2
Fore
SplineSet
127.95 512 m 5
 128 128 l 5
 256 128 l 5
 256 256 l 5
 384 256 l 5
 384 128 l 5
 640 128 l 5
 640 0 l 5
 384 0 l 5
 384 -128 l 5
 256 -128 l 5
 256 0 l 5
 0 0 l 5
 0 640 l 5
 640 640 l 5
 640 128 l 5
 512 128 l 5
 512 512 l 5
 127.95 512 l 5
EndSplineSet
Validated: 524293
EndChar

StartChar: R
Encoding: 82 82 50
Width: 768
VWidth: 0
Flags: W
HStem: 0 128<512 640> 256.017 127.983<256 384> 511.934 128<128 512>
VStem: 0 128<0 511.934> 384 128<128 256.017> 512 128<384 511.934>
LayerCount: 2
Fore
SplineSet
128 -0.0664062 m 9xf4
 0 0 l 25
 0 639.934 l 17
 640 639.934 l 1
 640 256.017 l 1xf4
 512 256.017 l 1
 512 128 l 1xf8
 640 128 l 1
 640 0 l 1xf4
 384 0 l 1
 384 256.017 l 1xf8
 256 256.017 l 1
 256 384 l 1
 512 384 l 1
 512 511.934 l 1
 128 511.934 l 1
 128 -0.0664062 l 9xf4
EndSplineSet
Validated: 524289
EndChar

StartChar: S
Encoding: 83 83 51
Width: 768
VWidth: 0
Flags: W
HStem: 0 128<0 512> 255.95 128.05<128 512.05> 512 128<128 512>
VStem: 0.0498047 127.95<384 512> 512 128<128 255.95>
LayerCount: 2
Fore
SplineSet
0.0498047 255.95 m 29
 0 640 l 21
 512 640 l 5
 512 512 l 5
 128 512 l 5
 128 384 l 5
 640 384 l 5
 640 0 l 5
 0 0 l 5
 0 128 l 5
 512 128 l 5
 512.05 255.95 l 13
 0.0498047 255.95 l 29
EndSplineSet
Validated: 524289
EndChar

StartChar: T
Encoding: 84 84 52
Width: 768
VWidth: 0
Flags: W
HStem: 0 21G<256 384> 512 128<0 256 384 640>
VStem: 256 128<0 512>
LayerCount: 2
Fore
SplineSet
640 640 m 21
 640 512 l 5
 384 512 l 5
 384 0 l 5
 256 0 l 5
 256 512 l 5
 0 512 l 5
 0 640 l 13
 640 640 l 21
EndSplineSet
Validated: 1
EndChar

StartChar: U
Encoding: 85 85 53
Width: 768
VWidth: 0
Flags: W
HStem: 0 127.95<128 512> 620 20G<0 128 512 640>
VStem: 0 128<127.95 640> 512 128<128 640>
LayerCount: 2
Fore
SplineSet
128 640 m 21
 128 127.95 l 5
 512 128 l 5
 512 640 l 5
 640 640 l 5
 640 0 l 5
 0 0 l 5
 0 640 l 13
 128 640 l 21
EndSplineSet
Validated: 524289
EndChar

StartChar: V
Encoding: 86 86 54
Width: 768
VWidth: 0
Flags: W
HStem: 0 127.95<256 384> 620 20G<0 128 512 640>
VStem: 0 128<384 640> 128 128<127.95 256> 384 128<128 256> 512 128<384 640>
LayerCount: 2
Fore
SplineSet
128 640 m 21xe0
 128 384 l 5xe0
 256 384 l 5
 256 127.95 l 5
 384 128 l 5
 384 384 l 5xd8
 512 384 l 5
 512 640 l 5
 640 640 l 5
 640 256 l 5xc4
 512 256 l 5xc8
 512 0 l 5
 128 0 l 5
 128 256 l 5xd4
 0 256 l 5
 0 640 l 13
 128 640 l 21xe0
EndSplineSet
Validated: 524289
EndChar

StartChar: W
Encoding: 87 87 55
Width: 768
VWidth: 0
Flags: W
HStem: 0 128<128 261 384.05 512> 620 20G<0 128 261 384.05 512 640>
VStem: 0 128<128 640> 261 123.05<128 639.95> 512 128<128 640>
LayerCount: 2
Fore
SplineSet
384.05 639.95 m 25
 384.05 127.95 l 17
 512 128 l 1
 512 640 l 1
 640 640 l 1
 640 0 l 1
 0 0 l 1
 0 640 l 1
 128 640 l 1
 128 128 l 1
 261 128 l 9
 261 640 l 25
 384.05 639.95 l 25
EndSplineSet
Validated: 524289
EndChar

StartChar: X
Encoding: 88 88 56
Width: 768
VWidth: 0
Flags: W
HStem: 0 128<0 128 512 640> 255.95 123.05<256.05 383.95> 512 128<0 128 512 640>
VStem: 0 256.05<0 128 512 640> 128 128.05<128 255.95 379 512> 384 256<0 128 512 640> 384 128<128 255.95 379 512>
LayerCount: 2
Fore
SplineSet
0 640 m 13xf0
 256.05 640 l 21xf0
 256.05 379 l 13
 384 379 l 21xea
 384 640 l 5
 640 640 l 5
 640 512 l 5xe4
 512 512 l 5
 512 128 l 5xe2
 640 128 l 5
 640 0 l 5
 384 0 l 5
 383.95 255.95 l 13
 256 255.95 l 21
 256.05 0 l 13
 0 0 l 21
 0 128 l 5xf4
 128 128 l 5
 128 512 l 5xe8
 0 512 l 5
 0 640 l 13xf0
EndSplineSet
Validated: 524289
EndChar

StartChar: Y
Encoding: 89 89 57
Width: 768
VWidth: 0
Flags: W
HStem: 0 21G<256 384> 256 128<128 256 384 512> 620 20G<0 128 512 640>
VStem: 0 128<384 640> 256 128<0 256> 512 128<384 640>
CounterMasks: 1 1c
LayerCount: 2
Fore
SplineSet
128 384 m 5
 512 384 l 5
 512 640 l 5
 640 640 l 5
 640 256 l 5
 384 256 l 5
 384 0 l 5
 256 0 l 5
 256 256 l 5
 0 256 l 5
 0 640 l 13
 128 640 l 21
 128 384 l 5
EndSplineSet
Validated: 1
EndChar

StartChar: Z
Encoding: 90 90 58
Width: 768
VWidth: 0
Flags: W
HStem: 0 128<0 128 256.05 640> 255.95 128.05<256 384> 512 128<0 384 512 640>
VStem: 128 128.05<128 255.95> 384 128<384 510>
LayerCount: 2
Fore
SplineSet
511.963 255.95 m 13
 256 255.95 l 21
 256.05 128 l 5
 640 128 l 5
 640 0 l 5
 0 0 l 5
 0 128 l 5
 128 128 l 5
 128.05 384 l 5
 384 384 l 5
 384 512 l 5
 0 512 l 5
 0 640 l 5
 640 640 l 5
 640 510 l 5
 512 510 l 5
 511.963 255.95 l 13
EndSplineSet
Validated: 524289
EndChar

StartChar: bracketleft
Encoding: 91 91 59
Width: 768
VWidth: 0
Flags: W
HStem: -128.3 128.3<257.2 511.2> 640.9 126<257.2 511.2>
VStem: 130 127.2<0 640.9>
LayerCount: 2
Fore
SplineSet
511.2 640.9 m 29
 257.2 640.9 l 29
 257.2 0 l 29
 511.2 0 l 29
 511.2 -128.3 l 29
 130 -128.3 l 29
 130 766.9 l 29
 511.2 766.9 l 29
 511.2 640.9 l 29
EndSplineSet
Validated: 524289
EndChar

StartChar: backslash
Encoding: 92 92 60
Width: 768
VWidth: 0
Flags: W
LayerCount: 2
Fore
SplineSet
513.2 -139.95 m 25
 0 819.3 l 25
 123.05 819.25 l 25
 636.25 -140 l 25
 513.2 -139.95 l 25
EndSplineSet
Validated: 524289
EndChar

StartChar: bracketright
Encoding: 93 93 61
Width: 768
VWidth: 0
Flags: W
HStem: -125.1 126<129.2 383.2> 641.801 128.3<129.2 383.2>
VStem: 383.2 127.2<0.900391 641.801>
LayerCount: 2
Fore
SplineSet
129.2 0.900391 m 29
 383.2 0.900391 l 29
 383.2 641.801 l 29
 129.2 641.801 l 29
 129.2 770.101 l 29
 510.4 770.101 l 29
 510.4 -125.1 l 29
 129.2 -125.1 l 29
 129.2 0.900391 l 29
EndSplineSet
Validated: 524289
EndChar

StartChar: asciicircum
Encoding: 94 94 62
Width: 768
VWidth: 0
Flags: W
LayerCount: 2
Fore
SplineSet
767.2 128.9 m 25
 639.2 128.9 l 25
 383.2 384.9 l 25
 127.2 128.9 l 25
 -0.799805 128.9 l 25
 383.2 768.9 l 25
 767.2 128.9 l 25
EndSplineSet
Validated: 524289
EndChar

StartChar: underscore
Encoding: 95 95 63
Width: 768
VWidth: 0
Flags: W
HStem: -127.95 21G<0 768> -19.9502 20G<0 768>
LayerCount: 2
Fore
SplineSet
0 -127.9 m 25
 0 0.0498047 l 25
 768 0 l 25
 768 -127.95 l 25
 0 -127.9 l 25
EndSplineSet
Validated: 524289
EndChar

StartChar: grave
Encoding: 96 96 64
Width: 768
VWidth: 0
Flags: W
HStem: 640.1 127.95<127.2 379>
VStem: 127.2 251.8<640.1 768>
LayerCount: 2
Fore
SplineSet
127.2 640.1 m 25
 127.2 768.05 l 25
 379 768 l 25
 379 640.05 l 25
 127.2 640.1 l 25
EndSplineSet
Validated: 524289
EndChar

StartChar: a
Encoding: 97 97 65
Width: 768
VWidth: 0
Flags: W
HStem: 0 127.983<128 384> 384 128<128 512>
VStem: 0 128<127.983 384> 512 128<0 384>
LayerCount: 2
Fore
SplineSet
512 -0.0664062 m 17
 512 384 l 1
 128 384 l 1
 128 127.983 l 1
 384 127.983 l 1
 384 0 l 1
 0 0 l 1
 0 512 l 1
 640 512 l 9
 640 0 l 25
 512 -0.0664062 l 17
EndSplineSet
Validated: 524289
EndChar

StartChar: b
Encoding: 98 98 66
Width: 768
VWidth: 0
Flags: W
HStem: 0 128<128 512> 384.017 127.983<128 512> 620 20G<0 128>
VStem: 0 128<128 639.934> 512 128<128 384.017>
LayerCount: 2
Fore
SplineSet
128 640 m 21
 128 128 l 5
 512 128 l 5
 512 384.017 l 5
 128 384.017 l 5
 128 512 l 5
 640 512 l 5
 640 0 l 5
 0 0 l 13
 0 639.934 l 29
 128 640 l 21
EndSplineSet
Validated: 524293
EndChar

StartChar: c
Encoding: 99 99 67
Width: 768
VWidth: 0
Flags: W
HStem: 0 128<128 640> 384 128<127.95 640>
VStem: 0 128<128 384>
LayerCount: 2
Fore
SplineSet
127.95 384 m 5
 128 128 l 5
 640 128 l 5
 640 0 l 5
 0 0 l 5
 0 512 l 5
 640 512 l 5
 640 384 l 5
 127.95 384 l 5
EndSplineSet
Validated: 524289
EndChar

StartChar: d
Encoding: 100 100 68
Width: 768
VWidth: 0
Flags: W
HStem: 0 128<128 512> 384.017 127.983<128 512> 620 20G<512 640>
VStem: 0 128<128 384.017> 512 128<128 639.934>
LayerCount: 2
Fore
SplineSet
512 640 m 13
 640 639.934 l 29
 640 0 l 21
 0 0 l 5
 0 512 l 5
 512 512 l 5
 512 384.017 l 5
 128 384.017 l 5
 128 128 l 5
 512 128 l 5
 512 640 l 13
EndSplineSet
Validated: 524293
EndChar

StartChar: e
Encoding: 101 101 69
Width: 768
VWidth: 0
Flags: W
HStem: 0.0498047 127.933<128 379> 256 256<256 640> 384 128<128 256>
VStem: 0 128<127.983 384>
LayerCount: 2
Fore
SplineSet
0 0.0498047 m 29xb0
 0 512 l 21xb0
 640 512 l 5
 640 256 l 5
 256 256 l 5xd0
 256 384 l 5
 128 384 l 5
 128 127.983 l 5
 379 127.95 l 13
 379 0 l 29
 0 0.0498047 l 29xb0
EndSplineSet
Validated: 524289
EndChar

StartChar: f
Encoding: 102 102 70
Width: 768
VWidth: 0
Flags: W
HStem: -128 21G<128.047 256.05> 255.95 123.05<0 128 256.05 511.95> 512 128<256.05 640>
VStem: 128.05 128<-128 255.95 384 512>
LayerCount: 2
Fore
SplineSet
128.05 -128 m 21
 128 256 l 5
 0 256 l 5
 0 384 l 5
 128 384 l 5
 128.05 640 l 5
 640 640 l 5
 640 512 l 5
 256.05 512 l 5
 256.05 379 l 13
 512 379 l 29
 511.95 255.95 l 29
 256 255.95 l 21
 256.05 -128 l 13
 128.05 -128 l 21
EndSplineSet
Validated: 524289
EndChar

StartChar: g
Encoding: 103 103 71
Width: 768
VWidth: 0
Flags: W
HStem: -128 128<256 512> 150 106<128 384> 384 128<128 512>
VStem: 0 128<256 384> 512 146<0 384>
LayerCount: 2
Fore
SplineSet
658 -128 m 25
 256 -128 l 25
 256 0 l 17
 512 0 l 1
 512 384 l 1
 128 384 l 1
 128 256 l 1
 384 256 l 1
 384 150 l 5
 0 150 l 5
 0 512 l 1
 658 512 l 9
 658 -128 l 25
EndSplineSet
Validated: 1
EndChar

StartChar: h
Encoding: 104 104 72
Width: 768
VWidth: 0
Flags: W
HStem: 0 21G<0 128 511.996 640> 255.95 123.05<128 511.95> 620 20G<0 128>
VStem: 0 128<0 255.95 379 640> 512 128<0 255.95>
LayerCount: 2
Fore
SplineSet
640 0 m 21
 512 0 l 1
 511.95 255.95 l 9
 127.95 255.95 l 17
 128 0 l 9
 0 0 l 17
 0 640 l 9
 128 640 l 17
 128 379 l 9
 640 379 l 25
 640 0 l 21
EndSplineSet
Validated: 524289
EndChar

StartChar: i
Encoding: 105 105 73
Width: 768
VWidth: 0
Flags: W
HStem: 0 128<0 255.95 384 640> 256 128.05<128 255.95> 512.05 127.95<255.95 384>
VStem: 255.95 128.05<128 256 512.05 639.95>
LayerCount: 2
Fore
SplineSet
255.95 512.05 m 29
 255.95 640 l 29
 384 639.95 l 29
 384 512 l 29
 255.95 512.05 l 29
0 0 m 21
 0 128 l 5
 255.95 128 l 5
 255.95 256 l 5
 128 256 l 5
 128 384.05 l 13
 384 384 l 21
 384 128 l 5
 640 128 l 5
 640 0 l 13
 0 0 l 21
EndSplineSet
Validated: 524289
EndChar

StartChar: j
Encoding: 106 106 74
Width: 768
VWidth: 0
Flags: W
HStem: -128.05 128.05<0 255.95> 256 128<128 255.95 384 640> 512.05 127.95<255.95 384>
VStem: 255.95 128.05<0 256 512.05 639.95>
LayerCount: 2
Fore
SplineSet
255.95 512.05 m 25
 255.95 640 l 25
 384 639.95 l 25
 384 512 l 25
 255.95 512.05 l 25
128 384 m 9
 640 384 l 17
 640 256 l 1
 384 256 l 1
 384 -128 l 9
 0 -128.05 l 17
 0 0 l 1
 255.95 0 l 1
 255.95 256 l 1
 128 256 l 1
 128 384 l 9
EndSplineSet
Validated: 524289
EndChar

StartChar: k
Encoding: 107 107 75
Width: 768
VWidth: 0
Flags: W
HStem: 0 128<384 640> 132.95 123.05<128 255.95> 256 128<384 512> 620 20G<0 128>
VStem: 0 128<0 132.95 256 640>
LayerCount: 2
Fore
SplineSet
0 640 m 9xd8
 128 640 l 17
 128 256 l 9xd8
 256 256 l 17
 256 384 l 1
 512 384 l 1
 512 256 l 1
 384 256 l 1xb8
 384 128 l 1
 640 128 l 1
 640 0 l 1
 256 0 l 1
 255.95 132.95 l 9
 127.95 132.95 l 17
 128 0 l 9
 0 0 l 17
 0 640 l 9xd8
EndSplineSet
Validated: 524289
EndChar

StartChar: l
Encoding: 108 108 76
Width: 768
VWidth: 0
Flags: W
HStem: 0 128<256 512> 512 128.05<0 127.95>
VStem: 127.95 128.05<128 512> 512 128<128 256>
LayerCount: 2
Fore
SplineSet
640 256 m 17
 640 0 l 1
 127.95 0 l 1
 127.95 512 l 1
 0 512 l 1
 0 640.05 l 9
 256 640 l 17
 256 128 l 1
 512 128 l 1
 512 256 l 9
 640 256 l 17
EndSplineSet
Validated: 524289
EndChar

StartChar: m
Encoding: 109 109 77
Width: 768
VWidth: 0
Flags: W
HStem: 0 21G<0 128 255.95 379 512 640> 384 128<128 255.95 379 512>
VStem: 0 128<0 384> 255.95 123.05<0.0498047 384> 512 128<0 384>
LayerCount: 2
Fore
SplineSet
255.95 0.0498047 m 29
 255.95 384.05 l 21
 128 384 l 5
 128 0 l 5
 0 0 l 5
 0 512 l 5
 640 512 l 5
 640 0 l 5
 512 0 l 5
 512 384 l 5
 379 384 l 13
 379 0 l 29
 255.95 0.0498047 l 29
EndSplineSet
Validated: 524289
EndChar

StartChar: n
Encoding: 110 110 78
Width: 768
VWidth: 0
Flags: W
HStem: 0 21G<0 128 512 640> 384 128<128 512>
VStem: 0 128<0 384> 512 128<0 384.05>
LayerCount: 2
Fore
SplineSet
512 384.05 m 5
 128 384 l 5
 128 0 l 5
 0 0 l 5
 0 512 l 5
 640 512 l 5
 640 0 l 5
 512 0 l 5
 512 384.05 l 5
EndSplineSet
Validated: 524289
EndChar

StartChar: o
Encoding: 111 111 79
Width: 768
VWidth: 0
Flags: W
HStem: 0 128<128 640> 384 128<127.95 512>
VStem: 0 128<128 384> 512 128<128 384>
LayerCount: 2
Fore
SplineSet
127.95 384 m 5
 128 128 l 5
 640 128 l 5
 640 0 l 5
 0 0 l 5
 0 512 l 5
 640 512 l 5
 640 128 l 5
 512 128 l 5
 512 384 l 5
 127.95 384 l 5
EndSplineSet
Validated: 524293
EndChar

StartChar: p
Encoding: 112 112 80
Width: 768
VWidth: 0
Flags: W
HStem: -128 21G<0 128> 0 127.983<256 512> 384 128<128 512>
VStem: 0 128<-127.934 384> 512 128<127.983 384>
LayerCount: 2
Fore
SplineSet
128 -128 m 9
 0 -127.934 l 25
 0 512 l 17
 640 512 l 1
 640 0 l 1
 256 0 l 1
 256 127.983 l 1
 512 127.983 l 1
 512 384 l 1
 128 384 l 1
 128 -128 l 9
EndSplineSet
Validated: 524289
EndChar

StartChar: q
Encoding: 113 113 81
Width: 768
VWidth: 0
Flags: W
HStem: -128 21G<512 640> 128.017 127.983<128 512> 384 128<128 512>
VStem: 0 128<256 384> 512 128<-127.934 128.017 256 384>
LayerCount: 2
Fore
SplineSet
512 -128 m 17
 512 384 l 1
 128 384 l 1
 128 256 l 5
 512 256 l 5
 512 128.017 l 5
 0 128.017 l 5
 0 512 l 1
 640 512 l 9
 640 -127.934 l 25
 512 -128 l 17
EndSplineSet
Validated: 524293
EndChar

StartChar: r
Encoding: 114 114 82
Width: 768
VWidth: 0
Flags: W
HStem: 0 21G<0 128> 384 128<128 640>
VStem: 0 128<0 384>
LayerCount: 2
Fore
SplineSet
640 512 m 9
 640 384.05 l 17
 128 384 l 1
 128 0 l 1
 0 0 l 1
 0 512 l 1
 640 512 l 9
EndSplineSet
Validated: 524289
EndChar

StartChar: s
Encoding: 115 115 83
Width: 768
VWidth: 0
Flags: W
HStem: 0 128<0 384> 128 128.05<512 640> 256 128<0 128> 384 128<256.05 640>
LayerCount: 2
Fore
SplineSet
256.05 384 m 9x10
 256 256 l 25
 0 256 l 17
 0 384 l 5
 128 384 l 1x20
 128 512 l 1
 640 512 l 1
 640 384 l 1
 256.05 384 l 9x10
384 128 m 9x80
 384 256.05 l 25
 640 256.05 l 17
 640 128 l 1
 512 128 l 1x40
 512 0 l 1
 0 0 l 1
 0 128 l 1
 384 128 l 9x80
EndSplineSet
Validated: 524289
EndChar

StartChar: t
Encoding: 116 116 84
Width: 768
VWidth: 0
Flags: W
HStem: 0 128<384 640> 389 123.05<0 255.95 384 639.95> 620 20G<255.992 384>
VStem: 256 128<128 384 512.05 640>
LayerCount: 2
Fore
SplineSet
256 640 m 13
 384 640 l 21
 383.95 512.05 l 13
 639.95 512.05 l 29
 640 389 l 29
 384 389 l 21
 384 128 l 5
 640 128 l 5
 640 0 l 5
 256 0 l 5
 255.95 384 l 5
 0 384 l 5
 0 512 l 5
 255.95 512 l 5
 256 640 l 13
EndSplineSet
Validated: 524289
EndChar

StartChar: u
Encoding: 117 117 85
Width: 768
VWidth: 0
Flags: W
HStem: 0 127.95<128 512> 492 20G<0 128 512 640>
VStem: 0 128<127.95 512> 512 128<128 512>
LayerCount: 2
Fore
SplineSet
128 127.95 m 5
 512 128 l 5
 512 512 l 5
 640 512 l 5
 640 0 l 5
 0 0 l 5
 0 512 l 5
 128 512 l 5
 128 127.95 l 5
EndSplineSet
Validated: 524289
EndChar

StartChar: v
Encoding: 118 118 86
Width: 768
VWidth: 0
Flags: W
HStem: 0 256<128 256 384 512> 0 127.95<256 384> 492 20G<0 128 512 640>
VStem: 0 128<256 512> 512 128<256 512>
LayerCount: 2
Fore
SplineSet
128 512 m 17xb8
 128 256 l 1
 256 256 l 1xb8
 256 127.95 l 1x78
 384 128 l 1
 384 256 l 1
 512 256 l 1
 512 512 l 1
 640 512 l 1
 640 128 l 1
 512 128 l 1
 512 0 l 1
 128 0 l 1
 128 128 l 1
 0 128 l 1
 0 512 l 9
 128 512 l 17xb8
EndSplineSet
Validated: 524289
EndChar

StartChar: w
Encoding: 119 119 87
Width: 768
VWidth: 0
Flags: W
HStem: 0 128<128 255.95 379 512> 492 20G<0 128 255.95 379 512 640>
VStem: 0 128<128 512> 255.95 123.05<128 511.95> 512 128<128 512>
LayerCount: 2
Fore
SplineSet
255.95 511.95 m 29
 379 512 l 29
 379 128 l 21
 512 128 l 5
 512 512 l 5
 640 512 l 5
 640 0 l 5
 0 0 l 5
 0 512 l 5
 128 512 l 5
 128 128 l 5
 255.95 127.95 l 13
 255.95 511.95 l 29
EndSplineSet
Validated: 524289
EndChar

StartChar: x
Encoding: 120 120 88
Width: 768
VWidth: 0
Flags: W
HStem: 0 128<0 128 512 640> 384 128<0 128 512 640>
VStem: 0 256.05<0 128 384 512> 384 256<0 128 384 512>
LayerCount: 2
Fore
SplineSet
0 512 m 9
 256.05 512 l 17
 256.05 379 l 9
 384 379 l 17
 384 512 l 1
 640 512 l 1
 640 384 l 1
 512 384 l 1
 512 128 l 1
 640 128 l 1
 640 0 l 1
 384 0 l 1
 383.95 128 l 9
 256 128 l 17
 256.05 0 l 9
 0 0 l 17
 0 128 l 1
 128 128 l 1
 128 384 l 1
 0 384 l 1
 0 512 l 9
EndSplineSet
Validated: 524289
EndChar

StartChar: y
Encoding: 121 121 89
Width: 768
VWidth: 0
Flags: W
HStem: -128 128<128 512> 128 128<128 512> 492 20G<0 128 512 640>
VStem: 0 128<256 512> 512 128<0 128 256 512>
LayerCount: 2
Fore
SplineSet
0 128 m 29
 0 512 l 25
 128 512 l 25
 128 256 l 25
 512 256 l 25
 512 512 l 25
 640 512 l 25
 640 -128 l 25
 128 -128 l 25
 128 0 l 25
 512 0 l 25
 512 128 l 25
 0 128 l 29
EndSplineSet
Validated: 1
EndChar

StartChar: z
Encoding: 122 122 90
Width: 768
VWidth: 0
Flags: W
HStem: 0 128<0 128 256.05 640> 384 128<0 384 512 640>
VStem: 128 128.05<128 256> 384 127.963<255.95 382>
LayerCount: 2
Fore
SplineSet
256.05 128 m 21
 640 128 l 5
 640 0 l 5
 0 0 l 5
 0 128 l 5
 128 128 l 5
 128.05 256 l 13
 256 256 l 29
 256.05 128 l 21
384 384 m 21
 0 384 l 5
 0 512 l 5
 640 512 l 5
 640 382 l 5
 512 382 l 5
 511.963 255.95 l 13
 384 255.95 l 29
 384 384 l 21
EndSplineSet
Validated: 524289
EndChar

StartChar: braceleft
Encoding: 123 123 91
Width: 768
VWidth: 0
Flags: W
HStem: -128.3 128.3<385.2 639.2> 256.9 128<0 256> 640.9 126<385.2 639.2>
VStem: 256 129.2<0 256.901 384.9 640.9>
LayerCount: 2
Fore
SplineSet
639.2 640.9 m 25
 385.2 640.9 l 25
 385.2 0 l 25
 639.2 0 l 25
 639.2 -128.3 l 25
 256 -128.3 l 17
 256 256.901 l 1
 0 256.9 l 1
 0 384.9 l 1
 256 384.9 l 1
 256 766.9 l 9
 639.2 766.9 l 25
 639.2 640.9 l 25
EndSplineSet
Validated: 524289
EndChar

StartChar: bar
Encoding: 124 124 92
Width: 768
VWidth: 0
Flags: W
HStem: -128 21G<256.15 379.222>
VStem: 256.15 123.05<-127.95 819.25>
LayerCount: 2
Fore
SplineSet
256.15 -127.95 m 25
 257.2 819.3 l 25
 380.25 819.25 l 25
 379.2 -128 l 25
 256.15 -127.95 l 25
EndSplineSet
Validated: 524289
EndChar

StartChar: braceright
Encoding: 125 125 93
Width: 768
VWidth: 0
Flags: W
HStem: -126 126<0 254> 256 127.999<383.2 639.2> 640.9 128.3<0 254>
VStem: 254 129.2<0 256 383.999 640.9>
LayerCount: 2
Fore
SplineSet
0 0 m 29
 254 0 l 29
 254 640.9 l 29
 0 640.9 l 29
 0 769.2 l 29
 383.2 769.2 l 21
 383.2 383.999 l 5
 639.2 384 l 5
 639.2 256 l 5
 383.2 256 l 5
 383.2 -126 l 13
 0 -126 l 29
 0 0 l 29
EndSplineSet
Validated: 524289
EndChar

StartChar: asciitilde
Encoding: 126 126 94
Width: 768
VWidth: 0
Flags: WO
HStem: 492 20G<107.247 275.213>
VStem: 0 129.2<128.01 384.358> 511.367 127.833<256.5 513.8>
LayerCount: 2
Fore
SplineSet
0 128.01 m 9
 0 384.5 l 17
 127.2 512 l 1
 255.2 512 l 1
 511.367 256 l 1
 511.2 513.8 l 1
 639.2 514 l 9
 639.2 256.5 l 17
 511.2 128 l 1
 383.2 128 l 1
 129.2 384.358 l 1
 129.2 128 l 1
 0 128.01 l 9
EndSplineSet
Validated: 524289
EndChar

